<?xml version="1.0" encoding="UTF-8" standalone="no"?>
<!DOCTYPE svg PUBLIC "-//W3C//DTD SVG 1.1//EN"
 "http://www.w3.org/Graphics/SVG/1.1/DTD/svg11.dtd">
<!-- Generated by graphviz version 9.0.0 (0)
 -->
<!-- Pages: 1 -->
<svg width="924pt" height="210pt"
 viewBox="0.00 0.00 924.25 210.00" xmlns="http://www.w3.org/2000/svg" xmlns:xlink="http://www.w3.org/1999/xlink">
<g id="graph0" class="graph" transform="scale(1 1) rotate(0) translate(4 206)">
<polygon fill="white" stroke="none" points="-4,4 -4,-206 920.25,-206 920.25,4 -4,4"/>
<!-- 140224648866320 -->
<g id="node1" class="node">
<title>140224648866320</title>
<polygon fill="none" stroke="black" points="630.75,-54.5 630.75,-90.5 710.5,-90.5 710.5,-54.5 630.75,-54.5"/>
<text text-anchor="middle" x="670.62" y="-67.2" font-family="Times,serif" font-size="14.00">data 1.0000</text>
</g>
<!-- 140224648866448relu -->
<g id="node8" class="node">
<title>140224648866448relu</title>
<ellipse fill="none" stroke="black" cx="773.5" cy="-72.5" rx="27" ry="18"/>
<text text-anchor="middle" x="773.5" y="-67.08" font-family="Times,serif" font-size="14.00">relu</text>
</g>
<!-- 140224648866320&#45;&gt;140224648866448relu -->
<g id="edge11" class="edge">
<title>140224648866320&#45;&gt;140224648866448relu</title>
<path fill="none" stroke="black" d="M710.91,-72.5C718.78,-72.5 727.02,-72.5 734.82,-72.5"/>
<polygon fill="black" stroke="black" points="734.72,-76 744.72,-72.5 734.72,-69 734.72,-76"/>
</g>
<!-- 140224648866320+ -->
<g id="node2" class="node">
<title>140224648866320+</title>
<ellipse fill="none" stroke="black" cx="567.75" cy="-72.5" rx="27" ry="18"/>
<text text-anchor="middle" x="567.75" y="-67.08" font-family="Times,serif" font-size="14.00">+</text>
</g>
<!-- 140224648866320+&#45;&gt;140224648866320 -->
<g id="edge1" class="edge">
<title>140224648866320+&#45;&gt;140224648866320</title>
<path fill="none" stroke="black" d="M594.99,-72.5C602.46,-72.5 610.85,-72.5 619.24,-72.5"/>
<polygon fill="black" stroke="black" points="619.08,-76 629.08,-72.5 619.08,-69 619.08,-76"/>
</g>
<!-- 140224648856144 -->
<g id="node3" class="node">
<title>140224648856144</title>
<polygon fill="none" stroke="black" points="420.5,-82.5 420.5,-118.5 504.75,-118.5 504.75,-82.5 420.5,-82.5"/>
<text text-anchor="middle" x="462.62" y="-95.2" font-family="Times,serif" font-size="14.00">data &#45;6.0000</text>
</g>
<!-- 140224648856144&#45;&gt;140224648866320+ -->
<g id="edge9" class="edge">
<title>140224648856144&#45;&gt;140224648866320+</title>
<path fill="none" stroke="black" d="M504.98,-89.27C513.68,-86.91 522.79,-84.43 531.26,-82.14"/>
<polygon fill="black" stroke="black" points="532.12,-85.53 540.85,-79.53 530.28,-78.77 532.12,-85.53"/>
</g>
<!-- 140224648856144+ -->
<g id="node4" class="node">
<title>140224648856144+</title>
<ellipse fill="none" stroke="black" cx="357.5" cy="-100.5" rx="27" ry="18"/>
<text text-anchor="middle" x="357.5" y="-95.08" font-family="Times,serif" font-size="14.00">+</text>
</g>
<!-- 140224648856144+&#45;&gt;140224648856144 -->
<g id="edge2" class="edge">
<title>140224648856144+&#45;&gt;140224648856144</title>
<path fill="none" stroke="black" d="M384.79,-100.5C392.17,-100.5 400.48,-100.5 408.82,-100.5"/>
<polygon fill="black" stroke="black" points="408.64,-104 418.64,-100.5 408.64,-97 408.64,-104"/>
</g>
<!-- 140224648866256 -->
<g id="node5" class="node">
<title>140224648866256</title>
<polygon fill="none" stroke="black" points="212.5,-110.5 212.5,-146.5 292.25,-146.5 292.25,-110.5 212.5,-110.5"/>
<text text-anchor="middle" x="252.38" y="-123.2" font-family="Times,serif" font-size="14.00">data 0.0000</text>
</g>
<!-- 140224648866256&#45;&gt;140224648856144+ -->
<g id="edge7" class="edge">
<title>140224648866256&#45;&gt;140224648856144+</title>
<path fill="none" stroke="black" d="M292.66,-117.83C301.94,-115.31 311.79,-112.64 320.9,-110.17"/>
<polygon fill="black" stroke="black" points="321.76,-113.56 330.49,-107.56 319.92,-106.8 321.76,-113.56"/>
</g>
<!-- 140224648866256* -->
<g id="node6" class="node">
<title>140224648866256*</title>
<ellipse fill="none" stroke="black" cx="147.25" cy="-128.5" rx="27" ry="18"/>
<text text-anchor="middle" x="147.25" y="-123.08" font-family="Times,serif" font-size="14.00">*</text>
</g>
<!-- 140224648866256*&#45;&gt;140224648866256 -->
<g id="edge3" class="edge">
<title>140224648866256*&#45;&gt;140224648866256</title>
<path fill="none" stroke="black" d="M174.54,-128.5C182.6,-128.5 191.75,-128.5 200.85,-128.5"/>
<polygon fill="black" stroke="black" points="200.76,-132 210.76,-128.5 200.76,-125 200.76,-132"/>
</g>
<!-- 140224648866448 -->
<g id="node7" class="node">
<title>140224648866448</title>
<polygon fill="none" stroke="black" points="836.5,-54.5 836.5,-90.5 916.25,-90.5 916.25,-54.5 836.5,-54.5"/>
<text text-anchor="middle" x="876.38" y="-67.2" font-family="Times,serif" font-size="14.00">data 1.0000</text>
</g>
<!-- 140224648866448relu&#45;&gt;140224648866448 -->
<g id="edge4" class="edge">
<title>140224648866448relu&#45;&gt;140224648866448</title>
<path fill="none" stroke="black" d="M800.74,-72.5C808.21,-72.5 816.6,-72.5 824.99,-72.5"/>
<polygon fill="black" stroke="black" points="824.83,-76 834.83,-72.5 824.83,-69 824.83,-76"/>
</g>
<!-- 140224648860880 -->
<g id="node9" class="node">
<title>140224648860880</title>
<polygon fill="none" stroke="black" points="2.25,-165.5 2.25,-201.5 82,-201.5 82,-165.5 2.25,-165.5"/>
<text text-anchor="middle" x="42.12" y="-178.2" font-family="Times,serif" font-size="14.00">data 1.0000</text>
</g>
<!-- 140224648860880&#45;&gt;140224648866256* -->
<g id="edge12" class="edge">
<title>140224648860880&#45;&gt;140224648866256*</title>
<path fill="none" stroke="black" d="M77.75,-165.03C89.97,-158.52 103.62,-151.24 115.49,-144.9"/>
<polygon fill="black" stroke="black" points="116.88,-148.13 124.06,-140.33 113.59,-141.95 116.88,-148.13"/>
</g>
<!-- 140224648857360 -->
<g id="node10" class="node">
<title>140224648857360</title>
<polygon fill="none" stroke="black" points="2.25,-110.5 2.25,-146.5 82,-146.5 82,-110.5 2.25,-110.5"/>
<text text-anchor="middle" x="42.12" y="-123.2" font-family="Times,serif" font-size="14.00">data 0.0000</text>
</g>
<!-- 140224648857360&#45;&gt;140224648866256* -->
<g id="edge10" class="edge">
<title>140224648857360&#45;&gt;140224648866256*</title>
<path fill="none" stroke="black" d="M82.41,-128.5C90.92,-128.5 99.9,-128.5 108.36,-128.5"/>
<polygon fill="black" stroke="black" points="108.34,-132 118.34,-128.5 108.34,-125 108.34,-132"/>
</g>
<!-- 140224648866128 -->
<g id="node11" class="node">
<title>140224648866128</title>
<polygon fill="none" stroke="black" points="210.25,-55.5 210.25,-91.5 294.5,-91.5 294.5,-55.5 210.25,-55.5"/>
<text text-anchor="middle" x="252.38" y="-68.2" font-family="Times,serif" font-size="14.00">data &#45;6.0000</text>
</g>
<!-- 140224648866128&#45;&gt;140224648856144+ -->
<g id="edge14" class="edge">
<title>140224648866128&#45;&gt;140224648856144+</title>
<path fill="none" stroke="black" d="M294.73,-84.33C303.36,-86.59 312.38,-88.95 320.79,-91.15"/>
<polygon fill="black" stroke="black" points="319.74,-94.49 330.3,-93.64 321.51,-87.72 319.74,-94.49"/>
</g>
<!-- 140224648866128* -->
<g id="node12" class="node">
<title>140224648866128*</title>
<ellipse fill="none" stroke="black" cx="147.25" cy="-73.5" rx="27" ry="18"/>
<text text-anchor="middle" x="147.25" y="-68.08" font-family="Times,serif" font-size="14.00">*</text>
</g>
<!-- 140224648866128*&#45;&gt;140224648866128 -->
<g id="edge5" class="edge">
<title>140224648866128*&#45;&gt;140224648866128</title>
<path fill="none" stroke="black" d="M174.54,-73.5C181.92,-73.5 190.23,-73.5 198.57,-73.5"/>
<polygon fill="black" stroke="black" points="198.39,-77 208.39,-73.5 198.39,-70 198.39,-77"/>
</g>
<!-- 140224648857424 -->
<g id="node13" class="node">
<title>140224648857424</title>
<polygon fill="none" stroke="black" points="2.25,-55.5 2.25,-91.5 82,-91.5 82,-55.5 2.25,-55.5"/>
<text text-anchor="middle" x="42.12" y="-68.2" font-family="Times,serif" font-size="14.00">data 2.0000</text>
</g>
<!-- 140224648857424&#45;&gt;140224648866128* -->
<g id="edge6" class="edge">
<title>140224648857424&#45;&gt;140224648866128*</title>
<path fill="none" stroke="black" d="M82.41,-73.5C90.92,-73.5 99.9,-73.5 108.36,-73.5"/>
<polygon fill="black" stroke="black" points="108.34,-77 118.34,-73.5 108.34,-70 108.34,-77"/>
</g>
<!-- 140224648857488 -->
<g id="node14" class="node">
<title>140224648857488</title>
<polygon fill="none" stroke="black" points="422.75,-27.5 422.75,-63.5 502.5,-63.5 502.5,-27.5 422.75,-27.5"/>
<text text-anchor="middle" x="462.62" y="-40.2" font-family="Times,serif" font-size="14.00">data 7.0000</text>
</g>
<!-- 140224648857488&#45;&gt;140224648866320+ -->
<g id="edge8" class="edge">
<title>140224648857488&#45;&gt;140224648866320+</title>
<path fill="none" stroke="black" d="M502.91,-55.78C512.19,-58.22 522.04,-60.79 531.15,-63.18"/>
<polygon fill="black" stroke="black" points="530.18,-66.54 540.74,-65.69 531.95,-59.77 530.18,-66.54"/>
</g>
<!-- 140224648857552 -->
<g id="node15" class="node">
<title>140224648857552</title>
<polygon fill="none" stroke="black" points="0,-0.5 0,-36.5 84.25,-36.5 84.25,-0.5 0,-0.5"/>
<text text-anchor="middle" x="42.12" y="-13.2" font-family="Times,serif" font-size="14.00">data &#45;3.0000</text>
</g>
<!-- 140224648857552&#45;&gt;140224648866128* -->
<g id="edge13" class="edge">
<title>140224648857552&#45;&gt;140224648866128*</title>
<path fill="none" stroke="black" d="M77.75,-36.97C89.97,-43.48 103.62,-50.76 115.49,-57.1"/>
<polygon fill="black" stroke="black" points="113.59,-60.05 124.06,-61.67 116.88,-53.87 113.59,-60.05"/>
</g>
</g>
</svg>
